<svg width="35" height="49" viewBox="0 0 35 49" fill="none" xmlns="http://www.w3.org/2000/svg">
<path d="M1.12632 41.4896C0.789126 41.927 0.870357 42.5549 1.30776 42.8921L8.4356 48.387C8.873 48.7242 9.50093 48.6429 9.83813 48.2055C10.1753 47.7681 10.0941 47.1402 9.65669 46.803L3.32083 41.9187L8.20518 35.5828C8.54237 35.1454 8.46114 34.5175 8.02374 34.1803C7.58634 33.8431 6.95841 33.9243 6.62121 34.3617L1.12632 41.4896ZM27.5619 1.33948C32.7269 10.374 34.0518 19.2567 30.3862 26.3251C26.7196 33.3954 17.8654 39.0288 1.79 41.1084L2.0466 43.0918C18.4039 40.9758 28.0556 35.1636 32.1616 27.2459C36.2687 19.3262 34.633 9.67832 29.2981 0.346839L27.5619 1.33948Z" fill="white"/>
</svg>
