<?xml version="1.0" standalone="no"?>
<!DOCTYPE svg PUBLIC "-//W3C//DTD SVG 20010904//EN"
 "http://www.w3.org/TR/2001/REC-SVG-20010904/DTD/svg10.dtd">
<svg version="1.0" xmlns="http://www.w3.org/2000/svg"
 width="512.000000pt" height="512.000000pt" viewBox="0 0 512.000000 512.000000"
 preserveAspectRatio="xMidYMid meet">

<g transform="translate(0.000000,512.000000) scale(0.100000,-0.100000)"
fill="#722b4f" stroke="#000000">
<path d="M1285 4759 c-170 -19 -390 -89 -538 -172 -247 -139 -467 -369 -595
-622 -126 -253 -178 -563 -138 -834 25 -169 96 -404 165 -547 253 -524 898
-1176 1836 -1856 264 -191 526 -368 546 -368 30 0 585 389 871 611 640 497
1153 1015 1403 1419 135 219 233 486 271 741 31 209 5 461 -67 666 -141 398
-463 729 -854 876 -377 143 -800 120 -1161 -63 -143 -73 -264 -161 -375 -273
l-89 -90 -88 90 c-310 313 -751 470 -1187 422z"/>
</g>
</svg>
