<?xml version="1.0" standalone="no"?>
<!DOCTYPE svg PUBLIC "-//W3C//DTD SVG 20010904//EN"
 "http://www.w3.org/TR/2001/REC-SVG-20010904/DTD/svg10.dtd">
<svg version="1.0" xmlns="http://www.w3.org/2000/svg"
 width="1280.000000pt" height="795.000000pt" viewBox="0 0 1280.000000 795.000000"
 preserveAspectRatio="xMidYMid meet">

<g transform="translate(0.000000,795.000000) scale(0.100000,-0.100000)"
fill="#000000" stroke="none">
<path d="M9152 6359 c-32 -306 -54 -510 -86 -794 -19 -170 -42 -377 -51 -460
-9 -82 -29 -267 -45 -410 -24 -204 -100 -910 -100 -922 0 -2 38 -3 85 -3 47 0
85 4 85 9 0 6 11 112 25 238 14 125 32 293 41 373 8 80 33 300 54 490 21 190
53 486 71 658 18 171 37 312 42 312 4 0 29 -44 54 -97 25 -54 96 -206 158
-338 62 -132 124 -265 138 -295 13 -30 62 -136 109 -235 122 -258 295 -627
371 -790 36 -77 89 -192 120 -255 30 -63 58 -125 61 -137 9 -29 23 -29 32 -1
4 13 64 144 134 293 70 148 153 326 185 395 32 69 76 161 97 205 22 44 52 109
68 145 15 36 55 121 88 190 33 69 103 220 157 335 54 116 122 262 152 325 30
63 71 150 91 194 28 62 38 75 43 60 5 -11 22 -149 39 -309 17 -159 51 -472 75
-695 79 -715 115 -1050 115 -1060 0 -6 37 -10 86 -10 l86 0 -6 48 c-3 26 -13
117 -21 202 -9 85 -33 310 -55 500 -21 190 -46 413 -55 495 -8 83 -35 328 -60
545 -24 217 -56 508 -70 645 -15 138 -27 254 -29 259 -1 5 -30 -54 -65 -130
-36 -77 -107 -229 -159 -339 -52 -110 -105 -225 -119 -255 -14 -30 -64 -136
-111 -235 -46 -99 -95 -202 -107 -230 -13 -27 -62 -133 -110 -235 -48 -102
-101 -214 -117 -250 -35 -76 -149 -318 -223 -475 -28 -60 -66 -143 -85 -182
-18 -40 -36 -73 -40 -73 -4 0 -23 35 -43 78 -19 42 -60 129 -90 192 -30 63
-82 174 -115 245 -33 72 -80 173 -105 225 -24 52 -124 266 -222 475 -97 209
-231 495 -297 635 -65 140 -137 293 -159 340 -22 47 -54 116 -72 154 l-33 69
-12 -114z"/>
<path d="M1551 6380 c-5 -3 -12 -27 -16 -55 -4 -27 -20 -133 -36 -235 -16
-102 -36 -232 -45 -290 -9 -58 -21 -134 -27 -170 l-12 -65 -232 -3 -231 -2 -7
-53 c-3 -28 -9 -60 -11 -69 -5 -17 10 -18 224 -18 126 0 231 -2 233 -4 4 -4
-72 -538 -87 -613 -4 -23 -5 -23 -236 -25 l-232 -3 -8 -45 c-4 -25 -9 -57 -12
-72 l-5 -28 235 0 c219 0 235 -1 230 -17 -3 -10 -19 -112 -36 -228 -17 -115
-45 -298 -61 -405 -16 -106 -29 -198 -29 -202 0 -4 34 -8 75 -8 l74 0 5 33
c14 83 96 621 106 692 6 44 13 92 16 108 l6 27 324 0 325 0 -5 -32 c-25 -147
-40 -246 -71 -463 -20 -137 -41 -271 -46 -298 -5 -28 -9 -54 -9 -58 0 -5 33
-9 74 -9 68 0 74 2 79 23 3 12 29 175 57 362 28 187 56 370 61 407 l11 68 231
2 231 3 7 35 c4 19 9 52 12 73 l6 37 -230 0 c-191 0 -229 2 -229 14 0 14 59
419 81 558 l11 68 231 2 232 3 11 68 11 67 -229 0 c-210 0 -228 1 -228 18 0
18 44 323 90 617 15 99 26 183 24 187 -2 3 -37 5 -77 4 l-72 -3 -7 -49 c-4
-27 -27 -179 -52 -339 -24 -159 -48 -315 -51 -345 -13 -98 17 -90 -340 -90
-172 0 -316 3 -318 8 -3 6 83 600 110 754 9 50 8 58 -7 63 -20 6 -117 3 -129
-5z m642 -985 c-3 -35 -84 -569 -90 -592 l-5 -23 -319 0 c-315 0 -319 0 -319
20 0 12 13 107 29 213 17 106 35 230 41 277 6 47 14 95 17 108 l5 22 322 -2
c314 -3 321 -3 319 -23z"/>
<path d="M3347 6384 c-4 -4 -7 -594 -7 -1311 l0 -1303 85 0 85 0 -2 1306 -3
1307 -75 4 c-42 2 -79 1 -83 -3z"/>
<path d="M4177 6383 c-4 -3 -7 -39 -7 -80 l0 -73 720 0 c396 0 720 -2 720 -4
0 -3 -26 -44 -58 -93 -32 -48 -88 -135 -126 -193 -62 -96 -239 -369 -399 -615
-36 -55 -94 -145 -130 -200 -35 -55 -98 -152 -139 -215 -41 -63 -95 -146 -120
-185 -119 -185 -281 -435 -372 -575 -56 -85 -128 -195 -160 -245 -32 -49 -65
-100 -73 -112 l-15 -23 921 0 921 0 0 75 0 75 -776 0 c-662 0 -775 2 -771 14
3 8 31 54 63 103 32 48 85 131 119 183 34 52 83 129 110 170 52 80 130 201
240 370 38 58 99 152 136 210 37 58 110 170 162 250 52 80 124 190 159 245 80
123 392 604 505 778 46 70 83 132 83 137 0 11 -1703 14 -1713 3z"/>
<path d="M6408 6380 c-1 -5 -1 -452 2 -992 5 -968 6 -984 27 -1059 24 -84 77
-197 124 -262 47 -66 146 -163 206 -203 284 -188 772 -188 1058 1 139 92 250
239 304 400 54 164 56 205 56 1205 l0 915 -82 1 -83 1 0 -846 c0 -849 -6
-1060 -36 -1176 -57 -223 -235 -398 -469 -461 -54 -15 -105 -19 -220 -19 -176
0 -224 10 -352 71 -219 105 -345 305 -360 569 -2 55 -6 496 -6 980 l-2 880
-82 3 c-49 2 -82 -1 -85 -8z"/>
<path d="M10245 5491 c-89 -26 -138 -91 -138 -183 0 -66 23 -109 82 -149 29
-19 49 -24 98 -24 54 0 66 4 99 31 64 52 79 78 79 144 0 50 -5 65 -31 101 -46
63 -127 97 -189 80z"/>
<path d="M8843 3287 c-18 -8 -20 -13 -12 -36 25 -66 89 -104 174 -105 80 0
128 24 162 82 26 43 26 45 8 58 -26 20 -31 18 -45 -16 -38 -92 -192 -93 -248
-2 -14 25 -20 28 -39 19z"/>
<path d="M8435 2938 c-55 -67 -141 -172 -192 -234 -51 -62 -97 -115 -103 -119
-7 -4 -10 67 -10 224 l0 231 -25 0 -25 0 0 -307 c0 -168 2 -304 4 -302 2 2 52
63 110 134 163 198 228 276 263 315 l32 35 1 -227 0 -228 30 0 30 0 0 300 c0
165 -3 300 -7 299 -5 0 -53 -55 -108 -121z"/>
<path d="M9170 3003 c-25 -31 -63 -77 -85 -103 -22 -25 -92 -109 -155 -186
l-115 -139 -3 233 -2 232 -25 0 -25 0 0 -307 0 -308 26 32 c14 18 105 128 202
245 l177 212 3 -227 2 -227 30 0 30 0 0 300 c0 165 -3 300 -7 300 -5 -1 -28
-26 -53 -57z"/>
<path d="M3160 3041 c-83 -26 -141 -74 -181 -151 -21 -39 -24 -59 -24 -145 0
-108 12 -144 71 -214 84 -100 275 -118 395 -38 27 18 35 30 37 61 l3 38 -47
-36 c-48 -37 -126 -66 -173 -66 -76 2 -167 60 -207 133 -23 43 -28 64 -28 122
0 112 56 198 157 240 79 33 195 9 260 -52 l27 -27 0 36 c0 43 -20 62 -89 89
-53 20 -152 25 -201 10z"/>
<path d="M3756 3030 c-61 -24 -110 -70 -144 -135 -23 -44 -26 -62 -27 -145 0
-84 3 -101 28 -152 54 -110 156 -166 283 -155 75 6 136 37 188 99 38 44 40 55
14 72 -13 8 -26 0 -63 -42 -60 -66 -130 -91 -208 -73 -101 23 -184 118 -186
214 l-1 27 251 0 252 0 -6 50 c-23 196 -203 309 -381 240z m222 -63 c44 -29
88 -94 98 -145 l7 -32 -217 0 -216 0 0 25 c0 58 64 139 135 172 49 22 145 12
193 -20z"/>
<path d="M5837 3036 c-94 -35 -168 -119 -188 -215 -52 -248 163 -444 398 -361
74 26 103 54 103 98 l0 34 -31 -27 c-60 -49 -109 -69 -179 -69 -172 0 -274
149 -228 332 15 60 96 145 154 161 87 24 158 10 237 -47 l48 -35 -3 39 c-3 36
-7 41 -58 68 -45 25 -69 30 -135 33 -52 2 -93 -2 -118 -11z"/>
<path d="M4220 3015 l0 -25 100 0 100 0 0 -265 0 -265 30 0 30 0 0 265 0 265
100 0 100 0 0 25 0 25 -230 0 -230 0 0 -25z"/>
<path d="M4800 2750 l0 -290 131 0 c147 0 184 11 221 63 31 44 36 139 10 187
-35 64 -59 74 -190 80 l-117 5 -3 123 -3 122 -24 0 -25 0 0 -290z m271 -26
c37 -19 63 -75 55 -119 -4 -17 -20 -45 -37 -61 -29 -28 -35 -29 -135 -32
l-104 -4 0 116 0 116 95 0 c68 0 105 -5 126 -16z"/>
<path d="M6220 3015 l0 -25 100 0 100 0 0 -265 0 -265 30 0 30 0 0 265 0 265
100 0 100 0 0 25 0 25 -230 0 -230 0 0 -25z"/>
<path d="M6740 3036 c0 -2 29 -63 64 -137 128 -269 206 -440 206 -454 0 -8
-27 -78 -60 -155 -33 -78 -61 -146 -63 -153 -1 -6 11 -11 27 -12 32 0 21 -22
165 325 73 173 175 415 215 508 l35 82 -33 0 c-32 0 -34 -2 -71 -92 -20 -51
-61 -149 -90 -218 -28 -69 -58 -142 -66 -162 -7 -21 -16 -38 -20 -38 -3 0 -28
46 -54 103 -26 56 -74 156 -105 222 -31 66 -63 135 -71 153 -12 27 -19 32 -46
32 -18 0 -33 -2 -33 -4z"/>
<path d="M7480 2840 c0 -159 -3 -208 -15 -238 -21 -49 -51 -80 -86 -87 l-29
-7 0 -104 0 -105 26 3 c25 3 26 5 28 78 l1 75 245 0 245 0 3 -77 c3 -75 4 -78
27 -78 25 0 25 0 25 105 l0 105 -40 0 -40 0 0 265 0 265 -195 0 -195 0 0 -200z
m330 -90 l0 -240 -166 0 c-91 0 -164 3 -162 8 52 101 52 100 56 290 l4 182
134 0 134 0 0 -240z"/>
<path d="M5803 2037 c-29 -13 -29 -25 0 -68 43 -65 138 -94 229 -69 44 13 110
84 106 115 -3 23 -48 35 -48 13 0 -22 -53 -67 -91 -78 -18 -6 -48 -7 -65 -4
-38 7 -101 57 -106 83 -2 15 -7 17 -25 8z"/>
<path d="M6119 1743 c-30 -37 -70 -85 -90 -107 -19 -23 -85 -101 -145 -175
l-109 -134 -5 229 -5 229 -27 3 -28 3 0 -308 1 -308 32 36 c42 46 304 363 340
411 16 21 33 38 38 38 5 0 9 -98 9 -230 l0 -230 25 0 25 0 0 305 c0 168 -1
305 -3 305 -2 0 -28 -30 -58 -67z"/>
<path d="M8265 1620 c-219 -264 -237 -285 -246 -288 -5 -2 -9 100 -9 227 l0
231 -25 0 -25 0 0 -307 c0 -300 0 -307 19 -288 17 19 256 308 346 419 l40 49
5 -229 c5 -228 5 -229 28 -232 12 -2 24 3 27 10 3 7 4 146 3 307 l-3 294 -160
-193z"/>
<path d="M10715 1573 c-110 -133 -203 -242 -207 -242 -5 -1 -8 103 -8 229 l0
230 -25 0 -25 0 0 -307 c1 -244 3 -305 13 -293 7 9 57 70 111 135 55 66 141
169 190 229 l91 109 5 -229 c5 -228 5 -229 28 -232 12 -2 24 3 27 10 3 7 4
146 3 308 l-3 295 -200 -242z"/>
<path d="M11555 1768 c-22 -25 -112 -134 -200 -241 -88 -108 -163 -196 -167
-196 -5 -1 -8 103 -8 229 l0 230 -25 0 -25 0 0 -307 c0 -168 2 -304 4 -302 47
55 151 180 261 314 l140 170 5 -230 c5 -229 5 -230 28 -233 12 -2 24 3 27 10
3 7 4 146 3 307 l-3 295 -40 -46z"/>
<path d="M1722 1786 c-122 -40 -191 -143 -192 -287 0 -91 22 -157 71 -213 64
-72 107 -90 214 -90 102 0 138 13 193 72 l32 36 0 -53 c0 -51 1 -52 28 -49
l27 3 3 293 2 292 -30 0 c-29 0 -30 -1 -30 -51 l0 -52 -21 27 c-53 68 -201
103 -297 72z m160 -48 c53 -16 122 -78 143 -130 27 -67 23 -163 -8 -232 -41
-89 -110 -136 -202 -136 -126 0 -225 109 -227 248 -1 118 43 195 137 238 56
26 99 30 157 12z"/>
<path d="M2411 1787 c-34 -11 -101 -69 -101 -87 0 -5 9 -14 21 -20 17 -10 23
-7 41 16 43 53 128 69 186 34 61 -37 69 -105 18 -156 -30 -30 -40 -34 -85 -34
-48 0 -51 -2 -51 -25 0 -23 3 -25 50 -25 66 0 127 -25 145 -61 61 -116 -82
-231 -217 -175 -34 15 -88 62 -88 77 0 13 -24 11 -45 -5 -17 -13 -17 -15 9
-49 51 -66 88 -82 196 -82 77 0 101 4 128 20 79 48 111 149 72 229 -12 26 -29
51 -38 56 -44 25 -45 26 -18 55 22 24 26 37 26 91 0 56 -3 67 -31 98 -46 53
-134 70 -218 43z"/>
<path d="M3050 1791 c-114 -37 -175 -106 -200 -226 -30 -143 30 -288 144 -348
34 -18 58 -21 136 -21 111 -1 133 8 203 83 52 56 56 66 28 80 -15 9 -24 3 -51
-31 -127 -157 -379 -85 -407 117 l-6 45 253 0 253 0 -6 50 c-12 99 -72 192
-151 232 -44 23 -153 33 -196 19z m148 -57 c67 -28 142 -119 142 -174 0 -20
-5 -20 -216 -20 l-217 0 6 35 c9 56 60 120 119 149 59 30 112 33 166 10z"/>
<path d="M3780 1791 c-51 -17 -109 -51 -129 -77 l-21 -27 0 52 c0 50 -1 51
-30 51 l-30 0 2 -457 3 -458 28 -3 27 -3 0 215 0 216 40 -40 c71 -71 220 -91
318 -41 91 47 152 158 152 279 -1 176 -101 289 -263 298 -40 2 -83 0 -97 -5z
m145 -52 c25 -7 58 -29 86 -58 53 -52 69 -96 69 -187 0 -110 -42 -188 -123
-229 -69 -34 -136 -34 -206 1 -62 31 -94 74 -116 159 -53 200 101 366 290 314z"/>
<path d="M5145 1787 c-87 -29 -151 -82 -191 -159 -27 -50 -31 -186 -9 -245 22
-57 94 -137 150 -166 60 -32 212 -31 275 1 111 58 164 147 164 277 1 69 -3 88
-29 138 -51 102 -137 157 -255 163 -37 2 -82 -2 -105 -9z m157 -47 c100 -28
178 -135 178 -244 -1 -216 -237 -332 -405 -199 -75 59 -109 189 -76 287 40
117 181 189 303 156z"/>
<path d="M6725 1787 c-33 -10 -41 -18 -43 -41 -3 -25 -1 -28 15 -21 10 5 44
13 76 19 112 20 218 -23 277 -112 16 -25 30 -58 30 -74 l0 -28 -170 0 -170 0
0 -25 0 -25 170 0 170 0 0 -30 c0 -41 -25 -99 -58 -133 -73 -77 -205 -98 -326
-51 -13 5 -16 0 -16 -24 0 -29 3 -31 58 -43 77 -16 191 -6 247 21 57 28 119
98 139 157 20 59 21 178 1 233 -23 64 -77 125 -140 155 -65 32 -194 43 -260
22z"/>
<path d="M977 1784 c-4 -4 -7 -110 -7 -236 0 -138 -4 -237 -10 -249 -13 -24
-67 -52 -86 -45 -10 4 -14 -3 -14 -26 0 -30 1 -31 40 -25 51 7 85 28 107 70
15 27 19 67 23 247 l5 215 132 3 133 3 2 -268 3 -268 25 0 25 0 0 290 0 290
-186 3 c-102 1 -188 -1 -192 -4z"/>
<path d="M4310 1495 l0 -296 28 3 27 3 3 138 3 137 164 0 164 0 3 -137 3 -138
25 0 25 0 0 290 0 290 -27 3 -28 3 0 -130 0 -131 -165 0 -165 0 -1 93 c-1 166
-1 162 -31 165 l-28 3 0 -296z"/>
<path d="M7315 1777 c-3 -7 -4 -138 -3 -292 l3 -280 27 -3 28 -3 2 268 3 268
157 3 158 3 2 -268 3 -268 25 0 25 0 3 293 2 292 -215 0 c-165 0 -217 -3 -220
-13z"/>
<path d="M8660 1555 c0 -197 -3 -240 -16 -260 -16 -24 -69 -49 -85 -39 -5 3
-9 -9 -9 -25 0 -28 3 -31 33 -31 42 0 92 31 114 72 15 28 18 65 21 251 l4 218
131 -3 132 -3 5 -265 5 -265 25 0 25 0 0 290 0 290 -192 3 -193 2 0 -235z"/>
<path d="M9350 1781 c-97 -20 -135 -72 -128 -179 4 -61 7 -67 43 -98 21 -19
53 -36 71 -40 19 -3 34 -9 34 -13 0 -3 -25 -39 -55 -79 -68 -91 -115 -159
-115 -167 0 -3 13 -5 29 -3 25 2 45 23 123 128 l93 125 50 0 50 0 3 -127 3
-128 24 0 25 0 0 295 0 295 -107 -1 c-60 -1 -124 -4 -143 -8z m198 -158 l3
-113 -98 0 c-80 0 -104 4 -131 20 -55 34 -67 95 -29 151 30 44 74 59 172 56
l80 -2 3 -112z"/>
<path d="M9810 1495 l0 -295 230 0 230 0 0 -75 c0 -73 1 -75 25 -75 l25 0 0
105 0 105 -40 0 -40 0 -2 263 -3 262 -27 3 -28 3 0 -265 0 -266 -160 0 -160 0
0 265 0 265 -25 0 -25 0 0 -295z"/>
</g>
</svg>
